<svg xmlns="http://www.w3.org/2000/svg" width="127" height="44" viewBox="0 0 127 44" fill="none"><path d="M9.52622 3H17.0524C19.1297 3 20.8156 4.68651 20.8156 6.76453V10.5291C20.8156 12.6071 19.1297 14.2936 17.0524 14.2936H2V10.5291C2 6.36872 5.36745 3 9.52622 3Z" fill="#FF4800"></path><path d="M9.52622 3H17.0524C19.1297 3 20.8156 4.68651 20.8156 6.76453V10.5291C20.8156 12.6071 19.1297 14.2936 17.0524 14.2936H2V10.5291C2 6.36872 5.36745 3 9.52622 3Z" fill="#FF4800"></path><path d="M2 18.0581H17.0524C19.1297 18.0581 20.8156 19.7447 20.8156 21.8227V29.3517C20.8156 31.4298 19.1297 33.1163 17.0524 33.1163H9.52622C5.37175 33.1163 2 29.7433 2 25.5872V18.0581Z" fill="#FF4800"></path><path d="M28.3418 18.0581H32.1049V25.5872C32.1049 29.7433 28.7331 33.1163 24.5787 33.1163V33.1163V21.8227C24.5787 19.7403 26.2602 18.0581 28.3418 18.0581Z" fill="#FF4800"></path><path d="M24.5787 3V3C28.7331 3 32.1049 6.37302 32.1049 10.5291V14.2936H28.3418C26.2645 14.2936 24.5787 12.6071 24.5787 10.5291V3V3Z" fill="#FF4800"></path><path fill-rule="evenodd" clip-rule="evenodd" d="M45.3166 26.6327V8.86837H52.1935C55.505 8.86837 57.5607 10.7958 57.5607 13.6784C57.5607 15.3907 56.6748 16.7115 55.3674 17.2708C57.1307 17.7527 58.4639 19.3015 58.4639 21.4441C58.4639 24.4643 56.2576 26.6327 53.0106 26.6327H45.3166ZM51.8752 12.2457H49.3894V15.9242H51.8752C52.916 15.9242 53.6514 15.2659 53.6514 14.0828C53.6514 12.904 52.9117 12.2457 51.8752 12.2457ZM49.3894 19.1724H52.3956C53.5095 19.1724 54.2965 19.9727 54.2965 21.216C54.2965 22.4465 53.5138 23.2596 52.3956 23.2596H49.3894V19.1724Z" fill="white"></path><path fill-rule="evenodd" clip-rule="evenodd" d="M74.9012 20.063C74.9012 16.2038 71.7401 13.1836 67.5427 13.1836C63.3452 13.1836 60.1842 16.2038 60.1842 20.063C60.1842 23.9222 63.3409 26.9424 67.5427 26.9424C71.7444 26.9424 74.9012 23.9222 74.9012 20.063ZM70.8542 20.0587C70.8542 21.9388 69.4307 23.3586 67.5427 23.3586C65.6547 23.3586 64.2311 21.9388 64.2311 20.0587C64.2311 18.1915 65.6504 16.7588 67.5427 16.7588C69.435 16.7588 70.8542 18.1915 70.8542 20.0587Z" fill="white"></path><path d="M77.2751 8.86837H81.3479V26.6327H77.2751V8.86837Z" fill="white"></path><path fill-rule="evenodd" clip-rule="evenodd" d="M94.0952 14.9347C93.0716 13.8419 91.6481 13.1836 89.9235 13.1836C86.3066 13.1836 83.7477 16.1995 83.7477 20.0587C83.7477 23.9179 86.3066 26.9381 89.9235 26.9381C91.6481 26.9381 93.0673 26.2799 94.0952 25.1871V26.6327H98.1034V8.86837H94.0952V14.9347ZM94.0952 20.0587C94.0952 21.9388 92.7018 23.3586 90.9256 23.3586C89.1623 23.3586 87.7904 21.9388 87.7947 20.0587C87.7947 18.1915 89.1623 16.7588 90.9256 16.7588C92.7018 16.7588 94.0952 18.1915 94.0952 20.0587Z" fill="white"></path><path fill-rule="evenodd" clip-rule="evenodd" d="M104.245 26.6327V8.86837H111.122C114.433 8.86837 116.489 10.7958 116.489 13.6784C116.489 15.3907 115.603 16.7115 114.296 17.2708C116.059 17.7527 117.392 19.3015 117.392 21.4441C117.392 24.4643 115.186 26.6327 111.939 26.6327H104.245ZM110.803 12.2457H108.318V15.9242H110.803C111.844 15.9242 112.58 15.2659 112.58 14.0828C112.58 12.904 111.844 12.2457 110.803 12.2457ZM108.318 19.1724H111.324C112.442 19.1724 113.225 19.9727 113.225 21.216C113.225 22.4465 112.442 23.2596 111.324 23.2596H108.318V19.1724Z" fill="white"></path><path d="M124.467 8.86837V26.6327H120.269V8.86837H124.467Z" fill="white"></path><path fill-rule="evenodd" clip-rule="evenodd" d="M103.301 33.0872C103.301 32.6372 103.656 32.2922 104.116 32.2922C104.576 32.2922 104.931 32.6372 104.931 33.0872C104.931 33.5372 104.576 33.8822 104.116 33.8822C103.656 33.8822 103.301 33.5372 103.301 33.0872ZM89.9962 32.3972V33.4922C89.8612 33.4772 89.6762 33.4672 89.5312 33.4672C88.9612 33.4672 88.7412 33.7022 88.7412 34.1872V34.4672H89.9962V35.6622H88.7412V39.6472H87.3662V35.6622H86.4912V34.4672H87.3662V34.1722C87.3662 32.9472 88.0512 32.3472 89.4012 32.3472C89.6112 32.3472 89.8362 32.3722 89.9962 32.3972ZM61.5129 38.3322L62.1279 37.6822C62.6579 38.2322 63.1979 38.5522 63.9329 38.5522C64.6079 38.5522 65.0979 38.2172 65.0979 37.6972C65.0979 37.2322 64.8029 36.8522 63.6779 36.6122C62.2779 36.3172 61.5329 35.5922 61.5329 34.5472C61.5329 33.3622 62.4979 32.5272 63.8629 32.5272C65.1879 32.5272 66.2029 33.2122 66.3779 34.6472H64.9479C64.8429 34.0522 64.4679 33.7322 63.9229 33.7322C63.3779 33.7322 62.9679 34.0172 62.9679 34.4422C62.9679 34.9172 63.3179 35.2422 64.3029 35.4672C65.8679 35.8272 66.5329 36.5572 66.5329 37.6572C66.5329 38.8822 65.5579 39.7672 63.9629 39.7672C63.1029 39.7672 62.2129 39.3172 61.5129 38.3322ZM45.4879 39.6472L48.4679 39.6472C49.7429 39.6472 50.5679 38.8072 50.5679 37.6072C50.5679 36.7322 50.0279 36.1172 49.3479 35.9322C49.8479 35.7122 50.1929 35.2322 50.1929 34.5422C50.1929 33.3872 49.4229 32.6472 48.1229 32.6472H45.4879V39.6472ZM48.0129 33.8222C48.4829 33.8222 48.8129 34.1072 48.8129 34.6522C48.8129 35.1922 48.4829 35.4772 48.0129 35.4772H46.8829V33.8222H48.0129ZM49.1479 37.5422C49.1479 36.9672 48.7979 36.6072 48.2979 36.6072H46.8829V38.4722H48.2979C48.7979 38.4722 49.1479 38.1072 49.1479 37.5422ZM52.5212 41.9672H53.9562L56.7112 34.4672H55.2812L54.1112 37.9072L52.9612 34.4672H51.5312L53.4312 39.6472L52.5212 41.9672ZM68.4362 41.9672H69.8712L72.6262 34.4672H71.1962L70.0262 37.9072L68.8762 34.4672H67.4462L69.3462 39.6472L68.4362 41.9672ZM76.7896 34.3472C78.0046 34.3472 78.8446 35.1872 78.8446 36.4422V39.6472H77.4696V36.5872C77.4696 36.0122 77.0196 35.5622 76.4896 35.5622C75.8546 35.5622 75.3146 36.0472 75.3146 36.8272V39.6472H73.9396V34.4672H75.3146V35.0472C75.6796 34.6072 76.1946 34.3472 76.7896 34.3472ZM85.4079 38.3222L84.6779 37.7572C84.3029 38.2472 83.7829 38.5522 83.1579 38.5522C82.2629 38.5522 81.6629 37.9022 81.6629 37.0572C81.6629 36.2172 82.2629 35.5622 83.0079 35.5622C83.5279 35.5622 83.8879 35.8122 84.0529 36.2072H85.5479C85.2379 35.0672 84.3329 34.3472 83.0079 34.3472C81.4629 34.3472 80.2829 35.5422 80.2829 37.0572C80.2829 38.5722 81.4629 39.7672 83.1079 39.7672C84.1079 39.7672 84.8879 39.2822 85.4079 38.3222ZM91.3246 37.6722C91.3246 38.9272 92.1646 39.7672 93.3796 39.7672C93.9696 39.7672 94.4896 39.5072 94.8546 39.0722V39.6472H96.2296V34.4672H94.8546V37.2272C94.8546 38.0422 94.3296 38.5522 93.6796 38.5522C93.1496 38.5522 92.6996 38.1022 92.6996 37.5272V34.4672H91.3246V37.6722ZM97.8829 38.6872L98.4479 38.0522C98.8529 38.4472 99.2529 38.6672 99.7629 38.6672C100.238 38.6672 100.523 38.4672 100.523 38.1522C100.523 37.8422 100.303 37.6522 99.6329 37.5172C98.5079 37.2872 97.9479 36.7172 97.9479 35.8572C97.9479 34.9872 98.6929 34.3472 99.8179 34.3472C100.988 34.3472 101.673 34.9922 101.838 35.9822H100.543C100.473 35.6472 100.248 35.4472 99.8879 35.4472C99.5629 35.4472 99.2929 35.6122 99.2929 35.8772C99.2929 36.1522 99.5379 36.3772 100.118 36.4972C101.318 36.7422 101.868 37.2922 101.868 38.1672C101.868 39.0822 101.103 39.7672 99.8179 39.7672C99.0429 39.7672 98.4129 39.3922 97.8829 38.6872ZM103.426 34.4672V39.6472H104.801V34.4672H103.426ZM109.25 34.3472C107.605 34.3472 106.375 35.5422 106.375 37.0572C106.375 38.5722 107.605 39.7672 109.25 39.7672C110.9 39.7672 112.125 38.5722 112.125 37.0572C112.125 35.5422 110.9 34.3472 109.25 34.3472ZM107.755 37.0572C107.755 37.9022 108.405 38.5522 109.25 38.5522C110.1 38.5522 110.75 37.9022 110.75 37.0572C110.75 36.2172 110.1 35.5622 109.25 35.5622C108.405 35.5622 107.755 36.2172 107.755 37.0572ZM118.573 36.4422C118.573 35.1872 117.733 34.3472 116.518 34.3472C115.923 34.3472 115.408 34.6072 115.043 35.0472V34.4672H113.668V39.6472H115.043V36.8272C115.043 36.0472 115.583 35.5622 116.218 35.5622C116.748 35.5622 117.198 36.0122 117.198 36.5872V39.6472H118.573V36.4422Z" fill="white"></path></svg>