<svg xmlns:inkscape="http://www.inkscape.org/namespaces/inkscape" xmlns:sodipodi="http://sodipodi.sourceforge.net/DTD/sodipodi-0.dtd" xmlns="http://www.w3.org/2000/svg" xmlns:svg="http://www.w3.org/2000/svg" width="2279.4" height="650" viewBox="0 0 2279.4 650" id="svg55952" sodipodi:docname="hostedscan-badge-dark.svg" inkscape:version="1.1.1 (3bf5ae0d25, 2021-09-20)"><defs id="defs55956"></defs><g id="g55934"><path x="323.42307" y="25.326344" width="1954.4755" height="595.86456" d="m373.42 25.326h1854.5a50 50 45 0 1 50 50v495.86a50 50 135 0 1-50 50h-1854.5a50 50 45 0 1-50-50v-495.86a50 50 135 0 1 50-50z" fill="#050060" fill-rule="evenodd" stroke="#323232" stroke-width="3" id="path55924"></path><g aria-label="Protected by" id="text55928" style="font-weight:bold;font-size:140px;line-height:1.25;fill:#ffffff"><path d="m 996.20166,190.11063 q 0,6.83593 -2.39258,13.39843 -2.39258,6.49414 -6.83594,10.9375 -6.08398,6.01563 -13.60351,9.0918 -7.45117,3.07617 -18.59375,3.07617 h -16.33789 v 33.1543 h -26.25 V 157.98172 h 43.20312 q 9.70703,0 16.33789,1.70898 6.69922,1.64063 11.82618,4.99024 6.15234,4.0332 9.36523,10.32226 3.28125,6.28907 3.28125,15.10743 z m -27.13867,0.61523 q 0,-4.30664 -2.32422,-7.38281 -2.32422,-3.14453 -5.40039,-4.375 -4.10156,-1.64063 -7.99805,-1.77735 -3.89648,-0.20507 -10.39062,-0.20507 h -4.51172 v 30.48828 h 7.51953 q 6.69922,0 11.00586,-0.82032 4.375,-0.82031 7.31445,-3.28125 2.5293,-2.1875 3.62305,-5.19531 1.16211,-3.07617 1.16211,-7.45117 z" id="path56038"></path><path d="m 1069.0728,206.44852 h -2.1875 q -1.5723,-0.54688 -5.0586,-0.82032 -3.4864,-0.27343 -5.8106,-0.27343 -5.2637,0 -9.2969,0.68359 -4.0332,0.68359 -8.6816,2.32422 v 51.40625 h -24.6094 v -76.76758 h 24.6094 v 11.2793 q 8.1348,-6.97266 14.1504,-9.22852 6.0156,-2.32422 11.0742,-2.32422 1.2988,0 2.9395,0.0684 1.6406,0.0684 2.8711,0.20508 z" id="path56040"></path><path d="m 1161.4946,221.41922 q 0,18.93555 -11.0742,29.87305 -11.0058,10.86914 -30.9668,10.86914 -19.9609,0 -31.0351,-10.86914 -11.0059,-10.9375 -11.0059,-29.87305 0,-19.07227 11.0742,-29.94141 11.1426,-10.86914 30.9668,-10.86914 20.0977,0 31.0352,10.9375 11.0058,10.9375 11.0058,29.87305 z m -30.2832,18.66211 q 2.3926,-2.93945 3.5547,-7.04102 1.2305,-4.16992 1.2305,-11.48437 0,-6.76758 -1.2305,-11.34766 -1.2305,-4.58008 -3.418,-7.31445 -2.1875,-2.80274 -5.2636,-3.96484 -3.0762,-1.16211 -6.6309,-1.16211 -3.5547,0 -6.3574,0.95703 -2.7344,0.95703 -5.2637,3.82812 -2.2558,2.66602 -3.623,7.31446 -1.2989,4.64843 -1.2989,11.68945 0,6.28906 1.1622,10.9375 1.1621,4.58008 3.4179,7.38281 2.1875,2.66602 5.1953,3.89649 3.0762,1.23046 6.9727,1.23046 3.3496,0 6.3574,-1.09375 3.0762,-1.16211 5.1953,-3.82812 z" id="path56042"></path><path d="m 1228.2134,259.08524 q -3.9649,1.02539 -8.4082,1.57226 -4.4434,0.61524 -10.8692,0.61524 -14.3554,0 -21.3964,-5.81055 -6.9727,-5.81055 -6.9727,-19.89258 v -35.88867 h -10.1172 v -16.67969 h 10.1172 v -21.94336 h 24.6094 v 21.94336 h 23.0371 v 16.67969 h -23.0371 v 27.20703 q 0,4.0332 0.068,7.04102 0.068,3.00781 1.0938,5.40039 0.957,2.39257 3.3496,3.82812 2.4609,1.36719 7.1094,1.36719 1.914,0 4.9902,-0.82031 3.1445,-0.82032 4.375,-1.50391 h 2.0508 z" id="path56044"></path><path d="m 1318.5161,225.93094 h -56.3281 q 0.5469,9.02344 6.8359,13.80859 6.3574,4.78516 18.6621,4.78516 7.793,0 15.1075,-2.80274 7.3144,-2.80273 11.5527,-6.01562 h 2.7344 v 19.75586 q -8.3399,3.34961 -15.7227,4.85351 -7.3828,1.50391 -16.3379,1.50391 -23.1054,0 -35.4101,-10.39062 -12.3047,-10.39063 -12.3047,-29.59961 0,-19.00391 11.6211,-30.07813 11.6894,-11.14258 31.9922,-11.14258 18.7304,0 28.164,9.50196 9.4336,9.43359 9.4336,27.20703 z m -24.4726,-14.42383 q -0.2051,-7.72461 -3.8282,-11.62109 -3.623,-3.89649 -11.2793,-3.89649 -7.1093,0 -11.6894,3.69141 -4.5801,3.6914 -5.127,11.82617 z" id="path56046"></path><path d="m 1375.8696,261.81961 q -10.0488,0 -18.3886,-2.39258 -8.2715,-2.39258 -14.4239,-7.38281 -6.084,-4.99023 -9.4336,-12.57813 -3.3496,-7.58789 -3.3496,-17.77343 0,-10.73242 3.5547,-18.52539 3.6231,-7.79297 10.0488,-12.91993 6.2207,-4.85351 14.3555,-7.10937 8.1348,-2.25586 16.8848,-2.25586 7.8613,0 14.4922,1.70898 6.6308,1.70899 12.373,4.44336 v 20.98633 h -3.4863 q -1.4356,-1.23047 -3.4863,-2.87109 -1.9825,-1.64063 -4.9219,-3.21289 -2.8028,-1.50391 -6.1524,-2.46094 -3.3496,-1.02539 -7.7929,-1.02539 -9.8438,0 -15.1758,6.28906 -5.2637,6.22071 -5.2637,16.95313 0,11.07422 5.4004,16.8164 5.4688,5.74219 15.4492,5.74219 4.6485,0 8.3399,-1.02539 3.7597,-1.09375 6.2207,-2.5293 2.3242,-1.36718 4.1015,-2.87109 1.7774,-1.50391 3.2813,-2.93945 h 3.4863 v 20.98632 q -5.8105,2.73438 -12.168,4.30665 -6.289,1.64062 -13.9453,1.64062 z" id="path56048"></path><path d="m 1467.3345,259.08524 q -3.9649,1.02539 -8.4082,1.57226 -4.4434,0.61524 -10.8692,0.61524 -14.3554,0 -21.3965,-5.81055 -6.9726,-5.81055 -6.9726,-19.89258 v -35.88867 h -10.1172 v -16.67969 h 10.1172 v -21.94336 h 24.6094 v 21.94336 h 23.0371 v 16.67969 h -23.0371 v 27.20703 q 0,4.0332 0.068,7.04102 0.068,3.00781 1.0938,5.40039 0.957,2.39257 3.3496,3.82812 2.4609,1.36719 7.1094,1.36719 1.914,0 4.9902,-0.82031 3.1445,-0.82032 4.375,-1.50391 h 2.0508 z" id="path56050"></path><path d="m 1557.6372,225.93094 h -56.3281 q 0.5469,9.02344 6.8359,13.80859 6.3574,4.78516 18.6621,4.78516 7.793,0 15.1075,-2.80274 7.3144,-2.80273 11.5527,-6.01562 h 2.7344 v 19.75586 q -8.3399,3.34961 -15.7227,4.85351 -7.3828,1.50391 -16.3379,1.50391 -23.1055,0 -35.4101,-10.39062 -12.3047,-10.39063 -12.3047,-29.59961 0,-19.00391 11.6211,-30.07813 11.6894,-11.14258 31.9922,-11.14258 18.7304,0 28.164,9.50196 9.4336,9.43359 9.4336,27.20703 z m -24.4726,-14.42383 q -0.2051,-7.72461 -3.8282,-11.62109 -3.623,-3.89649 -11.2793,-3.89649 -7.1093,0 -11.6894,3.69141 -4.5801,3.6914 -5.127,11.82617 z" id="path56052"></path><path d="m 1649.6489,259.76883 h -24.6093 v -7.99805 q -6.3575,5.19531 -11.8946,7.65625 -5.5371,2.46094 -12.7832,2.46094 -14.0137,0 -22.4219,-10.80078 -8.4082,-10.80078 -8.4082,-29.1211 0,-9.77539 2.8028,-17.29492 2.8711,-7.58789 7.7929,-12.98828 4.6485,-5.12695 11.2793,-7.92969 6.6309,-2.87109 13.2618,-2.87109 6.9043,0 11.2793,1.50391 4.4433,1.43554 9.0918,3.6914 v -32.67578 h 24.6093 z m -24.6093,-21.19141 v -37.66601 q -2.5977,-1.09375 -5.4688,-1.57227 -2.8711,-0.47851 -5.2637,-0.47851 -9.707,0 -14.5605,6.08398 -4.8535,6.01563 -4.8535,16.74805 0,11.27929 3.8965,16.40625 3.8964,5.05859 12.5097,5.05859 3.3496,0 7.1094,-1.23047 3.7598,-1.29883 6.6309,-3.34961 z" id="path56054"></path><path d="m 1800.8599,220.32547 q 0,18.11523 -10.0489,29.53125 -9.9804,11.41602 -24.9511,11.41602 -6.4258,0 -11.2793,-1.36719 -4.8535,-1.36719 -9.2285,-3.96485 l -1.0254,3.82813 h -23.584 V 153.40164 h 24.6094 v 37.59766 q 5.6738,-4.51172 11.5527,-7.31446 5.9473,-2.80273 13.6719,-2.80273 14.5605,0 22.4218,10.52734 7.8614,10.45899 7.8614,28.91602 z m -25.3614,0.47852 q 0,-10.25391 -3.4863,-15.79102 -3.4863,-5.53711 -12.4414,-5.53711 -3.4863,0 -7.1777,1.09375 -3.6914,1.02539 -7.041,3.00781 v 38.55469 q 2.666,0.95703 5.0585,1.29883 2.3926,0.3418 5.7422,0.3418 9.7754,0 14.5606,-5.74219 4.7851,-5.74219 4.7851,-17.22656 z" id="path56056"></path><path d="m 1853.2915,232.63016 17.5,-49.62891 h 25.293 l -42.6563,104.93164 h -26.6601 l 12.1679,-28.71094 -29.873,-76.2207 h 25.8398 z" id="path56058"></path></g><g aria-label="HostedScan Security" id="text55932" style="font-weight:bold;font-size:140px;line-height:1.25;fill:#ffffff"><path d="m 721.88019,474.1235 h -26.25 v -44.84375 h -38.75977 v 44.84375 h -26.25 V 372.3364 h 26.25 v 37.25585 h 38.75977 V 372.3364 h 26.25 z" id="path58693"></path><path d="m 824.96613,435.7739 q 0,18.93554 -11.07422,29.87304 -11.00586,10.86914 -30.9668,10.86914 -19.96094,0 -31.03516,-10.86914 -11.00586,-10.9375 -11.00586,-29.87304 0,-19.07227 11.07422,-29.94141 11.14258,-10.86914 30.9668,-10.86914 20.09766,0 31.03516,10.9375 11.00586,10.9375 11.00586,29.87305 z m -30.28321,18.6621 q 2.39258,-2.93945 3.55469,-7.04101 1.23047,-4.16992 1.23047,-11.48438 0,-6.76757 -1.23047,-11.34765 -1.23047,-4.58008 -3.41797,-7.31446 -2.1875,-2.80273 -5.26367,-3.96484 -3.07617,-1.16211 -6.63086,-1.16211 -3.55469,0 -6.35742,0.95703 -2.73438,0.95703 -5.26367,3.82813 -2.25586,2.66601 -3.62305,7.31445 -1.29883,4.64844 -1.29883,11.68945 0,6.28907 1.16211,10.9375 1.16211,4.58008 3.41797,7.38282 2.1875,2.66601 5.19531,3.89648 3.07617,1.23047 6.97266,1.23047 3.34961,0 6.35742,-1.09375 3.07617,-1.16211 5.19531,-3.82813 z" id="path58695"></path><path d="m 909.32159,449.78757 q 0,11.89453 -10.66406,19.20898 -10.66406,7.2461 -29.18945,7.2461 -10.25391,0 -18.59375,-1.91407 -8.33985,-1.91406 -13.39844,-4.23828 v -20.23437 h 2.25586 q 1.8457,1.29882 4.23828,2.87109 2.46094,1.50391 6.9043,3.28125 3.82812,1.57227 8.68164,2.73438 4.85351,1.09375 10.39062,1.09375 7.2461,0 10.73243,-1.57227 3.48632,-1.64063 3.48632,-4.78516 0,-2.80273 -2.05078,-4.0332 -2.05078,-1.29883 -7.79297,-2.46094 -2.73437,-0.61523 -7.45117,-1.29883 -4.64844,-0.75195 -8.47656,-1.77734 -10.45898,-2.73437 -15.51758,-8.47656 -5.05859,-5.81055 -5.05859,-14.42383 0,-11.07422 10.45898,-18.38867 10.52735,-7.38281 28.71094,-7.38281 8.61328,0 16.47461,1.77734 7.92969,1.70898 12.37305,3.69141 v 19.41406 h -2.11914 q -5.46875,-3.75977 -12.50977,-6.08399 -6.97266,-2.39257 -14.15039,-2.39257 -5.94727,0 -10.04883,1.64062 -4.0332,1.64063 -4.0332,4.64844 0,2.73437 1.8457,4.16992 1.8457,1.43555 8.68164,2.87109 3.75977,0.75196 8.06641,1.50391 4.375,0.68359 8.75,1.77734 9.70703,2.5293 14.35547,7.99805 4.64843,5.40039 4.64843,13.53516 z" id="path58697"></path><path d="m 974.74152,473.43991 q -3.96485,1.02539 -8.40821,1.57227 -4.44336,0.61523 -10.86914,0.61523 -14.35547,0 -21.39648,-5.81055 -6.97266,-5.81054 -6.97266,-19.89257 v -35.88868 h -10.11719 v -16.67968 h 10.11719 v -21.94336 h 24.60938 v 21.94336 h 23.03711 v 16.67968 h -23.03711 v 27.20704 q 0,4.0332 0.0684,7.04101 0.0684,3.00781 1.09375,5.40039 0.95703,2.39258 3.34961,3.82813 2.46093,1.36718 7.10937,1.36718 1.91406,0 4.99023,-0.82031 3.14454,-0.82031 4.375,-1.5039 h 2.05079 z" id="path58699"></path><path d="m 1065.0443,440.28561 h -56.3282 q 0.5469,9.02344 6.836,13.8086 6.3574,4.78515 18.6621,4.78515 7.7929,0 15.1074,-2.80273 7.3144,-2.80273 11.5527,-6.01563 h 2.7344 v 19.75586 q -8.3398,3.34961 -15.7227,4.85352 -7.3828,1.50391 -16.3378,1.50391 -23.1055,0 -35.4102,-10.39063 -12.30469,-10.39062 -12.30469,-29.59961 0,-19.0039 11.6211,-30.07812 11.68949,-11.14258 31.99219,-11.14258 18.7305,0 28.1641,9.50195 9.4336,9.4336 9.4336,27.20703 z m -24.4727,-14.42382 q -0.2051,-7.72461 -3.8281,-11.6211 -3.6231,-3.89648 -11.2793,-3.89648 -7.1094,0 -11.6895,3.6914 -4.5801,3.69141 -5.1269,11.82618 z" id="path58701"></path><path d="m 1157.056,474.1235 h -24.6094 v -7.99804 q -6.3574,5.19531 -11.8945,7.65625 -5.5371,2.46094 -12.7832,2.46094 -14.0137,0 -22.4219,-10.80079 -8.4082,-10.80078 -8.4082,-29.12109 0,-9.77539 2.8027,-17.29492 2.8711,-7.58789 7.793,-12.98828 4.6484,-5.12696 11.2793,-7.92969 6.6308,-2.87109 13.2617,-2.87109 6.9043,0 11.2793,1.5039 4.4434,1.43555 9.0918,3.69141 v -32.67578 h 24.6094 z m -24.6094,-21.1914 v -37.66602 q -2.5977,-1.09375 -5.4688,-1.57226 -2.871,-0.47852 -5.2636,-0.47852 -9.7071,0 -14.5606,6.08399 -4.8535,6.01562 -4.8535,16.74804 0,11.2793 3.8965,16.40625 3.8965,5.0586 12.5098,5.0586 3.3496,0 7.1093,-1.23047 3.7598,-1.29883 6.6309,-3.34961 z" id="path58703"></path><path d="m 1263.1497,442.13132 q 0,15.03906 -12.7832,24.47265 -12.7148,9.36524 -34.5898,9.36524 -12.6465,0 -22.0801,-2.1875 -9.3652,-2.25586 -17.5684,-5.67383 v -24.4043 h 2.8711 q 8.1348,6.49414 18.1836,9.98047 10.1172,3.48633 19.4141,3.48633 2.3926,0 6.289,-0.41016 3.8965,-0.41015 6.3575,-1.36718 3.0078,-1.23047 4.9218,-3.07618 1.9825,-1.8457 1.9825,-5.46875 0,-3.34961 -2.8711,-5.74218 -2.8028,-2.46094 -8.2715,-3.75977 -5.7422,-1.36719 -12.168,-2.5293 -6.3574,-1.23046 -11.9629,-3.07617 -12.8515,-4.16992 -18.5254,-11.27929 -5.6054,-7.17774 -5.6054,-17.77344 0,-14.21875 12.7148,-23.17383 12.7832,-9.02344 32.8125,-9.02344 10.0488,0 19.8242,1.98242 9.8438,1.91407 17.0215,4.85352 v 23.44727 h -2.8027 q -6.1524,-4.92188 -15.1074,-8.20313 -8.8868,-3.34961 -18.1836,-3.34961 -3.2813,0 -6.5625,0.47852 -3.2129,0.41015 -6.2207,1.64062 -2.6661,1.02539 -4.5801,3.14453 -1.9141,2.05078 -1.9141,4.7168 0,4.0332 3.0762,6.2207 3.0762,2.11914 11.6211,3.89649 5.6055,1.16211 10.7324,2.25586 5.1953,1.09375 11.1426,3.00781 11.6894,3.82812 17.2266,10.45898 5.6054,6.5625 5.6054,17.08985 z" id="path58705"></path><path d="m 1319.7513,476.17429 q -10.0488,0 -18.3887,-2.39258 -8.2715,-2.39258 -14.4238,-7.38281 -6.084,-4.99024 -9.4336,-12.57813 -3.3496,-7.58789 -3.3496,-17.77344 0,-10.73242 3.5547,-18.52539 3.623,-7.79297 10.0488,-12.91992 6.2207,-4.85352 14.3555,-7.10937 8.1347,-2.25586 16.8847,-2.25586 7.8614,0 14.4922,1.70898 6.6309,1.70898 12.3731,4.44336 v 20.98633 h -3.4864 q -1.4355,-1.23047 -3.4863,-2.8711 -1.9824,-1.64062 -4.9219,-3.21289 -2.8027,-1.5039 -6.1523,-2.46093 -3.3496,-1.02539 -7.793,-1.02539 -9.8437,0 -15.1758,6.28906 -5.2636,6.2207 -5.2636,16.95312 0,11.07422 5.4004,16.81641 5.4687,5.74219 15.4492,5.74219 4.6484,0 8.3398,-1.02539 3.7598,-1.09375 6.2207,-2.5293 2.3242,-1.36719 4.1016,-2.87109 1.7773,-1.50391 3.2812,-2.93946 h 3.4864 v 20.98633 q -5.8106,2.73438 -12.168,4.30664 -6.2891,1.64063 -13.9453,1.64063 z" id="path58707"></path><path d="m 1408.6185,454.09421 v -15.9961 q -4.9903,0.41016 -10.8008,1.16211 -5.8106,0.6836 -8.8184,1.64063 -3.6914,1.16211 -5.6738,3.41797 -1.9141,2.1875 -1.9141,5.81054 0,2.39258 0.4102,3.89649 0.4102,1.5039 2.0508,2.87109 1.5722,1.36719 3.7597,2.05078 2.1875,0.61524 6.836,0.61524 3.6914,0 7.4512,-1.50391 3.8281,-1.5039 6.6992,-3.96484 z m 0,11.89453 q -1.9825,1.50391 -4.9219,3.62305 -2.9395,2.11914 -5.5371,3.34961 -3.6231,1.64062 -7.5195,2.39257 -3.8965,0.82032 -8.545,0.82032 -10.9375,0 -18.3203,-6.76758 -7.3828,-6.76758 -7.3828,-17.29492 0,-8.40821 3.7598,-13.74024 3.7597,-5.33203 10.664,-8.4082 6.836,-3.07617 16.9532,-4.375 10.1171,-1.29883 20.9863,-1.91406 v -0.41016 q 0,-6.35742 -5.1953,-8.75 -5.1953,-2.46094 -15.3125,-2.46094 -6.084,0 -12.9883,2.1875 -6.9043,2.11914 -9.9121,3.28125 h -2.2559 v -18.52539 q 3.8965,-1.02539 12.6465,-2.39258 8.8184,-1.43554 17.6367,-1.43554 20.9864,0 30.2832,6.49414 9.3653,6.42578 9.3653,20.23437 v 52.22656 h -24.4043 z" id="path58709"></path><path d="m 1532.7591,474.1235 h -24.7461 v -38.07617 q 0,-4.64843 -0.4785,-9.22851 -0.4785,-4.64844 -1.6406,-6.83594 -1.3672,-2.5293 -4.0332,-3.69141 -2.5977,-1.16211 -7.3145,-1.16211 -3.3496,0 -6.8359,1.09375 -3.418,1.09375 -7.4512,3.48633 v 54.41406 h -24.6094 v -76.76757 h 24.6094 v 8.47656 q 6.5625,-5.12695 12.5781,-7.86133 6.084,-2.73437 13.4668,-2.73437 12.4414,0 19.4141,7.24609 7.041,7.24609 7.041,21.66992 z" id="path58711"></path><path d="m 1686.0892,442.13132 q 0,15.03906 -12.7832,24.47265 -12.7149,9.36524 -34.5899,9.36524 -12.6465,0 -22.0801,-2.1875 -9.3652,-2.25586 -17.5683,-5.67383 v -24.4043 h 2.8711 q 8.1347,6.49414 18.1836,9.98047 10.1172,3.48633 19.414,3.48633 2.3926,0 6.2891,-0.41016 3.8965,-0.41015 6.3574,-1.36718 3.0078,-1.23047 4.9219,-3.07618 1.9824,-1.8457 1.9824,-5.46875 0,-3.34961 -2.8711,-5.74218 -2.8027,-2.46094 -8.2715,-3.75977 -5.7421,-1.36719 -12.1679,-2.5293 -6.3574,-1.23046 -11.9629,-3.07617 -12.8516,-4.16992 -18.5254,-11.27929 -5.6055,-7.17774 -5.6055,-17.77344 0,-14.21875 12.7149,-23.17383 12.7832,-9.02344 32.8125,-9.02344 10.0488,0 19.8242,1.98242 9.8437,1.91407 17.0215,4.85352 v 23.44727 h -2.8028 q -6.1523,-4.92188 -15.1074,-8.20313 -8.8867,-3.34961 -18.1836,-3.34961 -3.2812,0 -6.5625,0.47852 -3.2129,0.41015 -6.2207,1.64062 -2.666,1.02539 -4.5801,3.14453 -1.914,2.05078 -1.914,4.7168 0,4.0332 3.0761,6.2207 3.0762,2.11914 11.6211,3.89649 5.6055,1.16211 10.7325,2.25586 5.1953,1.09375 11.1425,3.00781 11.6895,3.82812 17.2266,10.45898 5.6055,6.5625 5.6055,17.08985 z" id="path58713"></path><path d="m 1778.306,440.28561 h -56.3282 q 0.5469,9.02344 6.836,13.8086 6.3574,4.78515 18.6621,4.78515 7.793,0 15.1074,-2.80273 7.3145,-2.80273 11.5527,-6.01563 h 2.7344 v 19.75586 q -8.3398,3.34961 -15.7226,4.85352 -7.3828,1.50391 -16.3379,1.50391 -23.1055,0 -35.4102,-10.39063 -12.3047,-10.39062 -12.3047,-29.59961 0,-19.0039 11.6211,-30.07812 11.6895,-11.14258 31.9922,-11.14258 18.7305,0 28.1641,9.50195 9.4336,9.4336 9.4336,27.20703 z m -24.4727,-14.42382 q -0.2051,-7.72461 -3.8281,-11.6211 -3.6231,-3.89648 -11.2793,-3.89648 -7.1094,0 -11.6895,3.6914 -4.58,3.69141 -5.1269,11.82618 z" id="path58715"></path><path d="m 1835.6595,476.17429 q -10.0488,0 -18.3887,-2.39258 -8.2715,-2.39258 -14.4238,-7.38281 -6.084,-4.99024 -9.4336,-12.57813 -3.3496,-7.58789 -3.3496,-17.77344 0,-10.73242 3.5547,-18.52539 3.623,-7.79297 10.0488,-12.91992 6.2207,-4.85352 14.3555,-7.10937 8.1347,-2.25586 16.8847,-2.25586 7.8614,0 14.4922,1.70898 6.6309,1.70898 12.3731,4.44336 v 20.98633 h -3.4864 q -1.4355,-1.23047 -3.4863,-2.8711 -1.9824,-1.64062 -4.9219,-3.21289 -2.8027,-1.5039 -6.1523,-2.46093 -3.3496,-1.02539 -7.793,-1.02539 -9.8437,0 -15.1758,6.28906 -5.2636,6.2207 -5.2636,16.95312 0,11.07422 5.4004,16.81641 5.4687,5.74219 15.4492,5.74219 4.6484,0 8.3398,-1.02539 3.7598,-1.09375 6.2207,-2.5293 2.3242,-1.36719 4.1016,-2.87109 1.7773,-1.50391 3.2812,-2.93946 h 3.4864 v 20.98633 q -5.8106,2.73438 -12.168,4.30664 -6.2891,1.64063 -13.9453,1.64063 z" id="path58717"></path><path d="m 1954.5364,474.1235 h -24.6093 v -8.47656 q -6.836,5.19531 -12.5098,7.92969 -5.6738,2.66602 -13.5352,2.66602 -12.7148,0 -19.6191,-7.31446 -6.8359,-7.31445 -6.8359,-21.60156 v -49.9707 h 24.7461 v 38.07617 q 0,5.81055 0.3418,9.70703 0.4101,3.82812 1.7773,6.35742 1.2988,2.5293 3.8965,3.69141 2.666,1.16211 7.3828,1.16211 3.1445,0 6.9727,-1.16211 3.8281,-1.16211 7.3828,-3.41797 v -54.41406 h 24.6093 z" id="path58719"></path><path d="m 2033.4232,420.80319 h -2.1875 q -1.5723,-0.54687 -5.0586,-0.82031 -3.4864,-0.27344 -5.8106,-0.27344 -5.2637,0 -9.2969,0.6836 -4.0332,0.68359 -8.6816,2.32421 v 51.40625 h -24.6094 v -76.76757 h 24.6094 v 11.27929 q 8.1348,-6.97265 14.1504,-9.22851 6.0156,-2.32422 11.0742,-2.32422 1.2988,0 2.9395,0.0684 1.6406,0.0684 2.8711,0.20508 z" id="path58721"></path><path d="m 2071.9778,474.1235 h -24.6093 v -76.76757 h 24.6093 z m 0.6836,-87.70507 h -25.9765 v -18.66211 h 25.9765 z" id="path58723"></path><path d="m 2144.3021,473.43991 q -3.9649,1.02539 -8.4082,1.57227 -4.4434,0.61523 -10.8692,0.61523 -14.3554,0 -21.3965,-5.81055 -6.9726,-5.81054 -6.9726,-19.89257 v -35.88868 h -10.1172 v -16.67968 h 10.1172 v -21.94336 h 24.6094 v 21.94336 h 23.0371 v 16.67968 h -23.0371 v 27.20704 q 0,4.0332 0.068,7.04101 0.068,3.00781 1.0938,5.40039 0.957,2.39258 3.3496,3.82813 2.4609,1.36718 7.1093,1.36718 1.9141,0 4.9903,-0.82031 3.1445,-0.82031 4.375,-1.5039 h 2.0508 z" id="path58725"></path><path d="m 2193.6575,446.98483 17.5,-49.6289 h 25.293 l -42.6562,104.93164 h -26.6602 l 12.168,-28.71094 -29.8731,-76.2207 h 25.8399 z" id="path58727"></path></g></g><g transform="translate(-51.609 -5.7902)" stroke-width=".47517" id="g55940"><path d="m362.37 651.27c-41.438-15.788-97.202-52.62-136.37-90.073-81.096-77.546-133-174.61-158.56-296.49-10.282-49.038-16.585-116.48-15.459-165.4l0.50466-21.919 4.3805-3.2812c5.0359-3.7722 8.3827-3.6984 31.771 0.70054 41.508 7.8068 92.624 6.649 136.87-3.1002 40.855-9.002 71.614-21.614 115.74-47.457 21.639-12.672 32.397-18.224 35.316-18.224 2.8219 0 12.367 4.6584 29.136 14.22 36.087 20.576 43.611 24.469 62.363 32.27 45.404 18.888 104.36 29.525 150.42 27.14 18.96-0.98199 44.04-3.9569 56.219-6.6683 12.796-2.849 17.263-2.4628 22.301 1.9282l4.3654 3.8049-8.5e-4 20.602c-5e-3 134.57-35.701 259.55-103.47 362.29-47.315 71.733-115.45 136.56-187 177.91-18.997 10.979-29.668 16.041-33.781 16.022-1.9535-8e-3 -8.592-1.9362-14.752-4.2833z" fill="#65aae1" stroke="#00376d" id="path55936"></path><path d="m376.08 6.0762c-3.4895 0.50031-14.213 6.097-34.836 18.174-44.13 25.843-74.889 38.456-115.74 47.458-44.246 9.7492-95.361 10.905-136.87 3.0985-23.389-4.3989-26.736-4.4712-31.772-0.69901l-4.3801 3.2811-0.50573 21.918c-1.1263 48.92 5.1773 116.36 15.459 165.4 25.556 121.88 77.463 218.94 158.56 296.49 39.167 37.453 94.932 74.286 136.37 90.073 5.336 2.033 11.02 3.7447 13.718 4.1737z" fill="#2997d7" stroke="#2985b8" id="path55938"></path></g><g transform="translate(.90061 -.33866)" display="none" id="g55946"><path d="m155.66 387.49c-58.502-35.486-107.43-65.419-108.74-66.518-4.4977-3.7904-15.367-70.889-19.633-121.2-1.2658-14.928-2.7169-43.913-3.2247-64.412l-0.92333-37.27 5.7401 0.85602c3.1571 0.47079 12.672 2.0004 21.145 3.3991 21.733 3.5877 67.937 3.5952 91.695 0.0149 54.678-8.24 97.991-25.503 149.73-59.678 14.57-9.6241 27.257-17.498 28.192-17.498s13.361 7.5866 27.613 16.859c55.852 36.337 100.19 53.429 158.31 61.022 19.279 2.519 62.863 2.1558 82.038-0.68353 8.8096-1.3045 16.319-2.0708 16.686-1.7029 0.36792 0.36792 0.33171 1.5478-0.0805 2.622-1.5053 3.9228-337.58 348.82-339.85 348.76-1.2858-0.029-50.203-29.088-108.7-64.574z" fill="#fff" id="path55942"></path><path d="m277.35 496.11c17.499-18.645 100.82-104.36 194.32-199.9 52.908-54.064 105.49-107.87 116.84-119.57l20.641-21.273 0.79351-17.606 0.79348-17.606-30.351 30.81c-16.693 16.945-94.599 96.335-173.13 176.42-78.526 80.087-143.68 145.61-144.79 145.61s-48.356-28.718-104.99-63.819c-56.636-35.1-103.17-63.625-103.41-63.388-1.1251 1.1251 8.7251 31.408 10.906 33.528 2.6532 2.5799 201.38 125.96 202.88 125.96 0.4895 0 4.7628-4.1263 9.4961-9.1696z" fill="#b4c7e7" stroke="#b4c7e7" stroke-width=".5" id="path55944"></path></g><g transform="translate(1.2123e-5)" id="g55950"><path d="m326.51 457.78-221.1-106.69 1.2855-106.69 217.24 142.69 381.78-316.22v182.54z" fill="#fff" id="path55948"></path></g></svg>